<?xml version="1.0" encoding="UTF-8"?>
<svg version="1.1" xmlns="http://www.w3.org/2000/svg" width="990" height="269">
<path d="M0 0 C326.7 0 653.4 0 990 0 C990 88.77 990 177.54 990 269 C663.3 269 336.6 269 0 269 C0 180.23 0 91.46 0 0 Z " fill="#FEFEFE" transform="translate(0,0)"/>
<path d="M0 0 C4.97529992 3.48842868 8.85134646 7.98528087 12.6640625 12.6796875 C16.05671519 11.54880327 16.5989038 10.73671039 18.7265625 7.9921875 C25.23187647 0.3662102 34.56039174 -4.6339416 44.60107422 -5.484375 C57.83935487 -6.21560339 68.7916466 -4.45238135 79.6640625 3.6796875 C89.07696321 12.1364617 93.10682681 22.34781846 94.6640625 34.6796875 C94.92309439 40.14399891 94.89844544 45.59822037 94.859375 51.06640625 C94.85563618 52.62010006 94.85279332 54.17379626 94.85079956 55.72749329 C94.84323144 59.77984339 94.82364318 63.83204586 94.8013916 67.88433838 C94.7771496 72.76622213 94.76811965 77.64815576 94.75648499 82.5300827 C94.7372135 89.9133864 94.69884391 97.29636734 94.6640625 104.6796875 C83.7740625 104.6796875 72.8840625 104.6796875 61.6640625 104.6796875 C61.60798828 98.01458984 61.60798828 98.01458984 61.55078125 91.21484375 C61.51262276 87.6516869 61.47155039 84.08858988 61.4285202 80.52548981 C61.38402537 76.77539647 61.34455699 73.02541058 61.31762695 69.27514648 C61.29144483 65.65689325 61.25094006 62.0390479 61.20087624 58.42104912 C61.18430749 57.04695177 61.17273142 55.67278403 61.16644859 54.29860115 C61.12119064 45.30228649 60.73132838 37.54500579 55.8515625 29.8046875 C51.30181602 25.38493377 46.90087884 24.26365581 40.6640625 24.3046875 C39.4884375 24.29695313 38.3128125 24.28921875 37.1015625 24.28125 C33.34033071 24.71721096 30.94579378 25.84303676 27.6640625 27.6796875 C26.1790625 28.1746875 26.1790625 28.1746875 24.6640625 28.6796875 C23.51385725 30.92712506 23.51385725 30.92712506 22.6640625 33.6796875 C22.3213028 34.59058136 21.97854309 35.50147522 21.62539673 36.43997192 C20.60183265 39.88940332 20.38714532 42.73559219 20.34521484 46.32763672 C20.32534515 47.62853241 20.30547546 48.9294281 20.28500366 50.26974487 C20.2731299 51.67461986 20.26146689 53.07949664 20.25 54.484375 C20.23127325 55.93312668 20.21169872 57.38186762 20.1913147 58.83059692 C20.14014647 62.62806855 20.1004393 66.42557548 20.06317139 70.22320557 C20.01596814 74.7880586 19.95443637 79.35273857 19.89532471 83.91744995 C19.80729916 90.83812535 19.73740183 97.75877072 19.6640625 104.6796875 C8.7740625 104.6796875 -2.1159375 104.6796875 -13.3359375 104.6796875 C-13.37332031 100.0803125 -13.41070313 95.4809375 -13.44921875 90.7421875 C-13.47951952 87.81636985 -13.51068099 84.89061148 -13.54492188 81.96484375 C-13.59910661 77.3279938 -13.65022151 72.69126112 -13.68237305 68.05419922 C-13.70851503 64.31276331 -13.74899269 60.57172453 -13.79912376 56.83053589 C-13.81571929 55.40816209 -13.82727889 53.98571972 -13.83355141 52.56326294 C-13.68757542 40.29904999 -13.68757542 40.29904999 -19.0546875 29.62109375 C-19.93640625 28.93853516 -19.93640625 28.93853516 -20.8359375 28.2421875 C-21.42375 27.76910156 -22.0115625 27.29601562 -22.6171875 26.80859375 C-26.31929363 24.37698313 -29.84137708 24.48472981 -34.1484375 24.4296875 C-35.35113281 24.40390625 -36.55382812 24.378125 -37.79296875 24.3515625 C-43.16224254 24.84882711 -46.30667646 26.65042646 -50.0859375 30.4296875 C-53.76559856 35.74475347 -54.57905023 40.97500884 -54.65478516 47.34936523 C-54.67465485 48.63016464 -54.69452454 49.91096405 -54.71499634 51.23057556 C-54.72686908 52.60814237 -54.73853215 53.98571101 -54.75 55.36328125 C-54.76873305 56.78818354 -54.78830802 58.21307499 -54.8086853 59.63795471 C-54.85978719 63.36800717 -54.89952949 67.0980955 -54.93682861 70.82830811 C-54.98408465 75.3147601 -55.0455875 79.80103712 -55.10467529 84.28734589 C-55.19261978 91.08472161 -55.26257495 97.88206836 -55.3359375 104.6796875 C-66.2259375 104.6796875 -77.1159375 104.6796875 -88.3359375 104.6796875 C-88.3359375 68.7096875 -88.3359375 32.7396875 -88.3359375 -4.3203125 C-77.4459375 -4.3203125 -66.5559375 -4.3203125 -55.3359375 -4.3203125 C-54.8409375 1.6196875 -54.8409375 1.6196875 -54.3359375 7.6796875 C-53.0571875 6.4421875 -51.7784375 5.2046875 -50.4609375 3.9296875 C-45.80473495 -0.22632267 -41.26980043 -2.50633368 -35.3359375 -4.3203125 C-34.73265625 -4.51109375 -34.129375 -4.701875 -33.5078125 -4.8984375 C-22.31604472 -7.072378 -9.93420796 -5.61498711 0 0 Z " fill="#000000" transform="translate(610.3359375,47.3203125)"/>
<path d="M0 0 C11.22 0 22.44 0 34 0 C34 47.52 34 95.04 34 144 C22.78 144 11.56 144 0 144 C-0.33 139.71 -0.66 135.42 -1 131 C-1.9075 132.03125 -2.815 133.0625 -3.75 134.125 C-11.87359142 142.28174893 -21.85470628 145.21245275 -33.0625 145.3125 C-47.12231738 145.3125 -57.42683072 140.45315075 -67.46484375 130.57421875 C-70.76483739 126.84505194 -73.47081115 123.59835733 -73.8125 118.5 C-72.91322591 109.85782353 -68.10741367 103.4732652 -61.76953125 97.88671875 C-59.75097895 95.73448749 -58.93226169 93.77766175 -58 91 C-62.06149712 87.45971195 -66.2549987 86.89257584 -71.41796875 85.84375 C-72.27003906 85.5653125 -73.12210938 85.286875 -74 85 C-74.33 84.01 -74.66 83.02 -75 82 C-74.0925 81.4225 -73.185 80.845 -72.25 80.25 C-69.47977054 78.33214884 -67.28054501 76.45597155 -65 74 C-62.03 77.465 -62.03 77.465 -59 81 C-54.12114941 80.58181281 -52.22040297 78.55070071 -49 75 C-48.2575 74.29875 -47.515 73.5975 -46.75 72.875 C-44.77556277 71.02022825 -44.77556277 71.02022825 -44 68 C-45.65 68 -47.3 68 -49 68 C-49.103125 68.78375 -49.20625 69.5675 -49.3125 70.375 C-50 73 -50 73 -53 75 C-54.65 75 -56.3 75 -58 75 C-59.65 71.7 -61.3 68.4 -63 65 C-60 65 -60 65 -57 66 C-57 65.34 -57 64.68 -57 64 C-56.34 64 -55.68 64 -55 64 C-54.77825067 62.54364629 -54.57301302 61.08477044 -54.375 59.625 C-54.25898437 58.81289062 -54.14296875 58.00078125 -54.0234375 57.1640625 C-54.01570312 56.44992188 -54.00796875 55.73578125 -54 55 C-55.81807085 52.82079493 -55.81807085 52.82079493 -58.3125 52.5 C-62.42894896 53.26585097 -63.57630517 55.67607566 -66 59 C-67.98 58.01 -69.96 57.02 -72 56 C-68.96083041 47.16159865 -61.79028388 41.99644349 -53.6875 38 C-43.05237915 32.94568514 -30.84038993 32.13801176 -19.33203125 34.87109375 C-12.96927467 37.38162513 -4.19275296 41.61449408 -1 48 C-0.67 32.16 -0.34 16.32 0 0 Z " fill="#010101" transform="translate(903,8)"/>
<path d="M0 0 C0.80050781 0.350625 1.60101562 0.70125 2.42578125 1.0625 C8.75390866 4.21016959 14.17241231 8.87005818 19 14 C19 14.66 19 15.32 19 16 C18.30132813 16.06058594 17.60265625 16.12117188 16.8828125 16.18359375 C15.51769531 16.30927734 15.51769531 16.30927734 14.125 16.4375 C13.22007812 16.51871094 12.31515625 16.59992187 11.3828125 16.68359375 C8.98889139 16.86989285 8.98889139 16.86989285 7 18 C7 18.66 7 19.32 7 20 C7.99 20.66 8.98 21.32 10 22 C10.66 21.34 11.32 20.68 12 20 C20.26255873 19.46693169 20.26255873 19.46693169 24 22 C25.84055759 25.1435555 26.90434496 28.53467244 28 32 C28.22558594 32.7115625 28.45117188 33.423125 28.68359375 34.15625 C29.125 36.125 29.125 36.125 29 40 C27.61195407 42.189653 26.0449624 44.08297394 24.359375 46.05078125 C22.33120715 48.95898745 22.80138196 51.55728737 23 55 C21.91166687 57.17474365 21.91166687 57.17474365 20 59 C17.13362122 59.48101807 17.13362122 59.48101807 13.60083008 59.45410156 C12.63456947 59.45497772 12.63456947 59.45497772 11.64878845 59.45587158 C9.52181911 59.45308714 7.39625538 59.42198214 5.26953125 59.390625 C3.79409043 59.38316379 2.3186397 59.37747029 0.84318542 59.37347412 C-3.03851729 59.35820801 -6.91962045 59.3189187 -10.80108643 59.2746582 C-14.76249073 59.23372602 -18.72399201 59.21546755 -22.68554688 59.1953125 C-30.45730446 59.1524246 -38.2285682 59.08416248 -46 59 C-45.55450933 60.76236409 -45.09954696 62.52233563 -44.640625 64.28125 C-44.26212402 65.75174805 -44.26212402 65.75174805 -43.87597656 67.25195312 C-42.21616803 72.45897788 -39.59737456 75.04157526 -34.875 77.875 C-28.60352764 80.15677753 -21.577065 80.06564547 -15.5 77.3125 C-12.77738811 75.91081634 -12.11793306 75.30364374 -10.98046875 72.375 C-9 70 -9 70 -6.70361328 69.59643555 C-3.72579217 69.50662989 -0.7891354 69.56573707 2.1875 69.6875 C3.22326172 69.71005859 4.25902344 69.73261719 5.32617188 69.75585938 C7.88556404 69.81483154 10.44205951 69.89707433 13 70 C11.95698803 72.30244142 10.89242396 74.5899435 9.8125 76.875 C9.52052734 77.52597656 9.22855469 78.17695312 8.92773438 78.84765625 C7.39898876 82.03665248 6.43439924 83.77071652 3.26171875 85.4453125 C2.51535156 85.62835938 1.76898437 85.81140625 1 86 C1.11487748 87.58409994 1.24234508 89.16728963 1.375 90.75 C1.44460938 91.63171875 1.51421875 92.5134375 1.5859375 93.421875 C1.99850055 95.99066382 2.71160957 97.75841015 4 100 C2.52809695 100.80509102 1.04692933 101.59324574 -0.4375 102.375 C-1.26121094 102.81585938 -2.08492187 103.25671875 -2.93359375 103.7109375 C-9.88303367 106.6323581 -16.82943742 107.36558228 -24.3125 107.3125 C-25.14064209 107.30758545 -25.96878418 107.3026709 -26.82202148 107.29760742 C-42.7340206 106.99533369 -54.93801274 101.36873214 -66 90 C-75.81031933 79.15927514 -79.40441339 66.01417149 -79.3125 51.6875 C-79.30686035 50.76396729 -79.3012207 49.84043457 -79.29541016 48.88891602 C-79.02410884 33.59799767 -74.09710301 20.34961018 -63.41796875 9.1875 C-47.02978922 -5.63863981 -20.00478603 -8.98294676 0 0 Z " fill="#010101" transform="translate(791,46)"/>
<path d="M0 0 C10.85623461 7.11270543 18.46984454 17.36411487 21.60546875 30.08203125 C24.15020568 46.37359451 22.82202856 63.63761283 13.23046875 77.45703125 C5.99701383 86.54190617 -3.49764607 91.85852812 -14.76953125 94.45703125 C-29.17156219 95.93365257 -42.64004518 94.87828255 -54.70703125 86.20703125 C-59.07699907 82.46250492 -62.56639093 78.22410692 -65.76953125 73.45703125 C-66.17042969 72.86664063 -66.57132812 72.27625 -66.984375 71.66796875 C-74.39129113 58.97838414 -74.11856246 41.27397675 -70.76953125 27.45703125 C-66.95312683 15.28161958 -60.20422688 5.46636882 -48.76953125 -0.54296875 C-33.33953016 -7.61031829 -15.170484 -8.45182113 0 0 Z " fill="#FEFEFE" transform="translate(481.76953125,54.54296875)"/>
<path d="M0 0 C10.99699583 7.43970674 16.57876726 18.11695796 19.83203125 30.8046875 C22.23249553 46.54358064 19.9770431 62.81243056 10.53125 75.89453125 C2.88344321 85.15322577 -7.30602849 91.49293372 -19.36474609 92.80322266 C-22.00140659 92.91923374 -24.61512012 92.92961112 -27.25390625 92.89453125 C-28.12660156 92.90613281 -28.99929688 92.91773438 -29.8984375 92.9296875 C-42.34041121 92.87438984 -52.84944556 88.26581565 -62.00390625 79.89453125 C-71.53790259 69.68641396 -74.69347691 55.91435764 -75.06640625 42.26953125 C-74.43433025 26.52030433 -69.56177095 12.86249699 -58.12890625 1.83203125 C-42.15732787 -11.64206094 -16.86712201 -10.81495655 0 0 Z " fill="#FEFEFE" transform="translate(362.75390625,56.48046875)"/>
<path d="M0 0 C8.62026522 6.21097149 14.79769451 14.27152841 17.5 24.5625 C18.25 29.3125 18.25 29.3125 18.25 41.3125 C-11.78 41.3125 -41.81 41.3125 -72.75 41.3125 C-72.75 27.57481748 -70.08313316 15.65542097 -60.375 5.4375 C-43.99956129 -9.47838874 -18.82881114 -11.45685288 0 0 Z " fill="#FEFEFE" transform="translate(108.75,55.6875)"/>
<path d="M0 0 C6.03730284 3.58320836 10.71438647 8.8341349 12.98046875 15.5546875 C14.86667497 25.04420561 14.56942995 34.75277132 9.265625 42.98046875 C4.9920578 48.63107427 -0.21891568 51.42397944 -7.1875 52.50390625 C-14.23468333 52.8821449 -19.79369909 51.23849056 -25.515625 47.08984375 C-31.92257761 40.7492157 -33.58407293 34.13861449 -33.890625 25.27734375 C-33.74815386 17.82135387 -32.71862218 11.68067775 -27.64453125 5.9921875 C-19.9937739 -1.05113732 -10.1372744 -3.66767847 0 0 Z " fill="#FEFEFE" transform="translate(889.515625,71.91015625)"/>
<path d="M0 0 C5.09253301 4.79580274 9.51555079 10.04665238 11.75 16.75 C12.08 7.84 12.41 -1.07 12.75 -10.25 C14.07 -10.25 15.39 -10.25 16.75 -10.25 C16.82030302 4.66723391 16.87309194 19.58445491 16.90543652 34.50181961 C16.92085862 41.42932955 16.94185815 48.35673613 16.97631836 55.28417969 C17.00958835 61.97558759 17.02687791 68.66686619 17.03463173 75.35836029 C17.04015409 77.90509475 17.0509377 80.45182368 17.06719017 82.99851227 C17.0891207 86.57888742 17.09196036 90.15882579 17.09057617 93.73925781 C17.101362 94.78080017 17.11214783 95.82234253 17.1232605 96.89544678 C17.06757191 110.29824077 13.4668773 122.19780406 4.45703125 132.328125 C-5.21360586 141.61439657 -17.16002813 146.17045353 -30.5 146.0625 C-31.23943848 146.05686035 -31.97887695 146.0512207 -32.74072266 146.04541016 C-45.94863934 145.75610207 -57.50087986 141.60142923 -67.125 132.375 C-72.35200949 126.820718 -78.25 119.72425797 -78.25 111.75 C-76.93 111.75 -75.61 111.75 -74.25 111.75 C-73.82589844 112.67941406 -73.40179688 113.60882813 -72.96484375 114.56640625 C-67.26147647 126.74511173 -61.1530282 133.9186597 -48.25927734 139.07226562 C-35.70631215 143.30641281 -21.80365481 142.61696261 -9.875 137 C0.40133146 131.37506068 6.65015019 124.47323549 10.41015625 113.2109375 C12.71420486 104.3648504 12.06465755 95.12907303 11.9375 86.0625 C11.92242481 84.18555762 11.90874142 82.30860352 11.89648438 80.43164062 C11.86370587 75.8708002 11.81208054 71.31053185 11.75 66.75 C11.48495163 67.29550507 11.21990326 67.84101013 10.94682312 68.40304565 C10.59400772 69.12066071 10.24119232 69.83827576 9.87768555 70.57763672 C9.53013718 71.28814178 9.18258881 71.99864685 8.82450867 72.73068237 C3.05230255 83.57835434 -7.35390851 90.04870565 -18.57421875 93.98828125 C-32.55975194 97.96956442 -47.89629497 96.59516836 -60.875 90.1875 C-73.19563001 82.92649471 -80.15954654 72.49841023 -84.4140625 59.078125 C-88.13526335 42.96710468 -86.42274785 24.01191251 -77.9375 9.8125 C-69.26236869 -2.75721153 -58.57983667 -8.86477123 -43.6875 -12 C-27.4856011 -13.17831992 -12.62857683 -10.78690938 0 0 Z M-70.5 5.9375 C-80.01119131 17.17283157 -83.27874941 32.30940637 -82.25 46.75 C-80.60463435 60.21968829 -77.21387438 72.12684178 -66.953125 81.70703125 C-53.81256267 91.63841001 -40.22713612 92.83885384 -24.25 91.75 C-12.43005216 89.76949647 -2.57279824 82.6194393 4.32421875 72.95703125 C12.90218485 59.67880976 14.38803453 44.7486029 12.28125 29.31640625 C9.55244644 16.82563282 3.03792485 6.05959163 -7.625 -1 C-27.75503319 -13.21495891 -53.92321474 -11.38152937 -70.5 5.9375 Z " fill="#060606" transform="translate(370.25,57.25)"/>
<path d="M0 0 C10.09815462 7.08587665 16.52904834 16.78025588 19.52734375 28.7734375 C19.52734375 35.3734375 19.52734375 41.9734375 19.52734375 48.7734375 C-11.49265625 48.7734375 -42.51265625 48.7734375 -74.47265625 48.7734375 C-72.23822831 65.53164705 -69.79896256 77.62921826 -56.56640625 88.42578125 C-43.50810354 96.83084549 -27.73264577 97.6245562 -12.7421875 95.16015625 C-3.58386411 92.41386905 4.83479958 87.07565076 9.96484375 78.8984375 C12.57134439 74.03296965 14.65128367 68.96019184 16.52734375 63.7734375 C17.51734375 63.7734375 18.50734375 63.7734375 19.52734375 63.7734375 C18.95248412 74.12091093 14.18780732 82.83294231 6.52734375 89.7734375 C-7.25876916 100.17568634 -22.83554479 102.66658944 -39.79296875 100.3125 C-53.50184872 97.27005927 -64.08445705 89.81025203 -71.78515625 78.0859375 C-79.9239432 63.19127725 -81.50035086 43.80401606 -76.84765625 27.4609375 C-76.11733019 25.54063961 -75.3272059 23.64176965 -74.47265625 21.7734375 C-74.03695312 20.8040625 -73.60125 19.8346875 -73.15234375 18.8359375 C-67.53785629 7.54560206 -58.84253173 -0.23200705 -46.95703125 -4.484375 C-31.17061622 -9.12934897 -14.4107452 -8.67607273 0 0 Z M-64.28515625 11.5859375 C-72.74935686 21.90667268 -74.47265625 31.56902251 -74.47265625 44.7734375 C-44.44265625 44.7734375 -14.41265625 44.7734375 16.52734375 44.7734375 C16.52734375 29.84047591 14.40830485 19.15201863 4.40234375 8.0234375 C-5.94123212 -1.69952381 -19.09939378 -3.8288203 -32.6640625 -3.53515625 C-45.38028277 -2.93295364 -55.63192501 2.37443327 -64.28515625 11.5859375 Z " fill="#050505" transform="translate(110.47265625,52.2265625)"/>
<path d="M0 0 C9.32213205 8.32396878 14.94441398 21.90000866 15.95263672 34.21142578 C16.93136412 51.55642469 13.60158553 67.87276664 1.79296875 81.26171875 C-11.8766875 92.82172726 -25.44918474 96.44680965 -43.20703125 95.26171875 C-57.16965908 93.1315443 -68.43162334 86.78603692 -77.25 75.69140625 C-87.04141895 61.36962928 -89.04156225 44.12561488 -85.9609375 27.34375 C-82.80352895 14.43600211 -76.12298598 3.00064188 -65.20703125 -4.73828125 C-43.58711809 -16.95705423 -19.58746517 -15.42729558 0 0 Z M-72.609375 6.921875 C-82.48812858 21.38978061 -84.98350919 37.18265802 -82.08203125 54.19921875 C-79.72025763 66.6533961 -73.0723486 77.82849384 -62.45703125 85.07421875 C-61.0625919 85.84504127 -59.64359272 86.57257462 -58.20703125 87.26171875 C-57.40394531 87.65359375 -56.60085938 88.04546875 -55.7734375 88.44921875 C-43.81553261 93.33415011 -27.69052918 93.38002872 -15.7109375 88.5234375 C-11.57009762 86.43686764 -7.83824693 84.14842986 -4.20703125 81.26171875 C-3.59214844 80.78347656 -2.97726562 80.30523437 -2.34375 79.8125 C5.67781194 72.75139115 11.01942465 60.83348817 11.79296875 50.26171875 C12.74846739 33.37016461 10.87772399 18.22966935 -0.51953125 4.94921875 C-9.53663067 -4.51207275 -20.2048994 -8.74125697 -33.29199219 -9.21313477 C-48.28002102 -9.36526001 -62.82351107 -5.13116308 -72.609375 6.921875 Z " fill="#070707" transform="translate(492.20703125,57.73828125)"/>
<path d="M0 0 C5.69189221 -0.24365977 9.7606388 0.87971341 14.96875 3.15234375 C14.96875 3.81234375 14.96875 4.47234375 14.96875 5.15234375 C15.566875 5.35859375 16.165 5.56484375 16.78125 5.77734375 C19.98443719 7.7907757 20.69671751 9.59065279 21.96875 13.15234375 C22.69900981 19.23126323 22.31066914 23.86097178 18.96875 29.15234375 C18.30875 29.15234375 17.64875 29.15234375 16.96875 29.15234375 C16.96875 29.81234375 16.96875 30.47234375 16.96875 31.15234375 C16.30875 31.15234375 15.64875 31.15234375 14.96875 31.15234375 C14.96875 31.81234375 14.96875 32.47234375 14.96875 33.15234375 C7.86310498 36.85963681 0.74590205 37.22625096 -7.03125 35.15234375 C-7.03125 34.49234375 -7.03125 33.83234375 -7.03125 33.15234375 C-7.8665625 33.05953125 -7.8665625 33.05953125 -8.71875 32.96484375 C-12.51458226 31.63117296 -15.24295413 28.72893548 -17.03125 25.15234375 C-17.7208054 17.70288456 -17.68515266 12.15342875 -13.03125 6.15234375 C-9.01284605 1.93577193 -5.72925545 0.42969416 0 0 Z " fill="#DCED0C" transform="translate(964.03125,116.84765625)"/>
<path d="M0 0 C11.14331388 -0.39684166 20.96447218 1.92394371 29.6171875 9.15234375 C34.60946756 13.92274469 36.83978867 19.57894696 38.6171875 26.15234375 C38.6171875 27.47234375 38.6171875 28.79234375 38.6171875 30.15234375 C37.2971875 30.15234375 35.9771875 30.15234375 34.6171875 30.15234375 C34.45863281 29.43949219 34.30007813 28.72664063 34.13671875 27.9921875 C31.88283935 18.74007484 29.07457527 13.22141199 20.875 8.1953125 C11.94657609 4.07093675 1.08498492 3.70959046 -8.46484375 5.83984375 C-15.27347548 8.3499384 -20.53975536 12.12021748 -24.3203125 18.33984375 C-26.06241816 24.59092876 -26.44209619 30.50413453 -24.0078125 36.58984375 C-23.4715625 37.43546875 -22.9353125 38.28109375 -22.3828125 39.15234375 C-22.0734375 39.89484375 -21.7640625 40.63734375 -21.4453125 41.40234375 C-20.06920406 43.6688753 -18.77996239 44.04822742 -16.3828125 45.15234375 C-15.66609375 45.49652344 -14.949375 45.84070313 -14.2109375 46.1953125 C-6.0989547 49.79654123 2.25047887 52.17632693 10.81152344 54.47729492 C20.39666305 57.13246905 31.51866199 60.6401199 36.9296875 69.58984375 C39.85428974 76.02636589 39.80863803 83.30912501 37.734375 90 C33.88710405 98.44616106 28.20625896 102.80647744 19.828125 106.390625 C8.13382362 110.41958042 -5.64411018 108.76269964 -16.87890625 104.12109375 C-23.9566883 100.5881705 -29.35649546 95.30499375 -32.3203125 87.90234375 C-33.3828125 84.15234375 -33.3828125 84.15234375 -33.3828125 80.15234375 C-32.0628125 80.15234375 -30.7428125 80.15234375 -29.3828125 80.15234375 C-29.23585937 80.79300781 -29.08890625 81.43367188 -28.9375 82.09375 C-27.1109633 89.13746338 -24.70701498 94.34864336 -18.4609375 98.3984375 C-10.75863461 102.4734931 -3.61531105 103.51504732 4.9921875 103.52734375 C5.88679688 103.55183594 6.78140625 103.57632813 7.703125 103.6015625 C15.40640465 103.63515238 21.00300589 101.48148301 27.4296875 97.33984375 C32.1462481 92.62328315 34.36988528 87.42909812 34.8671875 80.83984375 C34.487294 75.23641459 32.83909158 71.01966893 28.8671875 67.02734375 C22.61609365 62.13237563 14.33858677 60.50650514 6.82519531 58.3515625 C4.81230206 57.77400125 2.80093308 57.19110483 0.79101562 56.60327148 C-1.19291925 56.02515337 -3.18110662 55.46137076 -5.17382812 54.91430664 C-14.69429858 52.15011338 -22.73873724 47.49409566 -28.3828125 39.15234375 C-31.33295871 33.25205133 -31.40446898 26.01261463 -29.73046875 19.6875 C-26.56681122 11.74441134 -21.47486443 6.917416 -13.8203125 3.27734375 C-9.10589859 1.32633121 -5.08690132 0.32522812 0 0 Z " fill="#060606" transform="translate(232.3828125,44.84765625)"/>
<path d="M0 0 C1.32 0 2.64 0 4 0 C4 8.91 4 17.82 4 27 C14.89 27 25.78 27 37 27 C37 27.99 37 28.98 37 30 C26.11 30 15.22 30 4 30 C4.08580369 39.9800848 4.17970818 49.96000579 4.28752708 59.93987751 C4.3372854 64.57487866 4.38361576 69.20985924 4.421875 73.8449707 C4.45898818 78.32547763 4.5054155 82.80580344 4.55806351 87.28615379 C4.57647016 88.98796572 4.59162767 90.68981626 4.60334396 92.39168739 C4.16421868 107.81374891 4.16421868 107.81374891 8.875 122.0625 C14.65256225 127.33027734 21.91728018 127.15117911 29.375 127.5625 C30.11105469 127.60568359 30.84710938 127.64886719 31.60546875 127.69335938 C33.40348068 127.79843799 35.20171958 127.89962093 37 128 C37 129.32 37 130.64 37 132 C14.21263732 132.76334838 14.21263732 132.76334838 6 126 C-1.57952784 115.60521897 -0.27368728 102.13526577 -0.1953125 89.86328125 C-0.19157487 88.13022527 -0.18873145 86.39716714 -0.18673706 84.66410828 C-0.1791596 80.13829549 -0.15956281 75.61261437 -0.1373291 71.08685303 C-0.11674271 66.4544045 -0.10770818 61.82193437 -0.09765625 57.18945312 C-0.07631042 48.12623541 -0.04117742 39.06314933 0 30 C-5.61 30 -11.22 30 -17 30 C-17 29.01 -17 28.02 -17 27 C-11.39 27 -5.78 27 0 27 C0 18.09 0 9.18 0 0 Z " fill="#0F0F0F" transform="translate(153,20)"/>
<path d="M0 0 C5.93450409 4.66915141 6.2584801 8.16316045 8 16 C-5.86 16 -19.72 16 -34 16 C-32.64318514 7.85911082 -29.66533359 3.79904018 -23 -1 C-15.4640852 -4.44030893 -7.27258121 -3.77744052 0 0 Z " fill="#FDFDFD" transform="translate(779,71)"/>
<path d="M0 0 C1.32 0 2.64 0 4 0 C4 47.52 4 95.04 4 144 C2.68 144 1.36 144 0 144 C0 96.48 0 48.96 0 0 Z " fill="#000000" transform="translate(9,8)"/>
<path d="M0 0 C3.74785043 2.08213913 4.79482295 3.2947039 6 7.4375 C6 11.4184894 5.5177436 12.96134393 3 16 C0.34500276 18.08606926 -1.06750504 17.99879455 -4.5 17.9375 C-8 17 -8 17 -10.4375 14.875 C-12.41259601 11.24082335 -12.59363772 9.08125936 -12 5 C-8.47403586 0.53377875 -5.6371593 -0.55266268 0 0 Z " fill="#F8F8F8" transform="translate(683,241)"/>
<path d="M0 0 C2.90580922 2.26007384 4.59963294 4.02410529 6 7.4375 C6 11.03159506 4.98260745 13.02608883 3 16 C0.07090749 17.82078724 -1.61842399 18.01557453 -5.0625 17.875 C-8.59115184 16.82391222 -9.95131497 16.07302755 -12 13 C-12.70910553 9.11983826 -12.56618837 6.05149269 -10.6875 2.5625 C-7.52595563 -0.3648559 -4.11957137 -0.49434856 0 0 Z " fill="#FCFCFC" transform="translate(200,241)"/>
<path d="M0 0 C-2.82845336 12.660696 -9.95558382 21.03373889 -20 29 C-20.33 29 -20.66 29 -21 29 C-20.47453061 17.64986123 -15.54513205 10.33527935 -8 2 C-4.77208445 -0.1519437 -3.71599191 -0.20086443 0 0 Z " fill="#040404" transform="translate(818,116)"/>
<path d="M0 0 C8.11111111 0 8.11111111 0 12 3 C14.34549674 6.51824511 14.57991403 7.85775694 14 12 C12.0625 14.875 12.0625 14.875 9 17 C5.87327402 17.41306246 3.17628148 17.23703593 0 17 C0 11.39 0 5.78 0 0 Z " fill="#070707" transform="translate(793,241)"/>
<path d="M0 0 C0.66 0 1.32 0 2 0 C3.98 3.96 5.96 7.92 8 12 C8.48210938 11.13375 8.96421875 10.2675 9.4609375 9.375 C10.09257813 8.26125 10.72421875 7.1475 11.375 6 C12.00148438 4.88625 12.62796875 3.7725 13.2734375 2.625 C14.12808594 1.325625 14.12808594 1.325625 15 0 C15.66 0 16.32 0 17 0 C17.495 8.415 17.495 8.415 18 17 C17.34 17 16.68 17 16 17 C15.34 14.03 14.68 11.06 14 8 C12.35 10.97 10.7 13.94 9 17 C8.34 17 7.68 17 7 17 C5.68 14.36 4.36 11.72 3 9 C1.03177114 10.96822886 1.33751619 14.34808709 1 17 C0.34 17 -0.32 17 -1 17 C-1.12036664 11.22240116 -0.8320582 5.72040011 0 0 Z " fill="#030303" transform="translate(733,241)"/>
<path d="M0 0 C7 0 7 0 9.4375 2 C10.2109375 2.99 10.2109375 2.99 11 4 C10.5875 5.03125 10.175 6.0625 9.75 7.125 C8.56099329 11.06321549 8.56099329 11.06321549 10.875 14.4375 C11.926875 15.7059375 11.926875 15.7059375 13 17 C9.79424013 16.65652573 9.02483241 16.0292146 6.875 13.5 C6.25625 12.675 5.6375 11.85 5 11 C4.34 10.67 3.68 10.34 3 10 C3 12.31 3 14.62 3 17 C2.01 17 1.02 17 0 17 C0 11.39 0 5.78 0 0 Z " fill="#0D0D0D" transform="translate(252,241)"/>
<path d="M0 0 C6.75 0 6.75 0 10 3 C9.835 3.94875 9.67 4.8975 9.5 5.875 C8.9473365 8.80168901 8.9473365 8.80168901 9 11 C9.495 11.66 9.99 12.32 10.5 13 C12 15 12 15 12 17 C10.1875 16.8125 10.1875 16.8125 8 16 C6.96986723 14.35178756 5.96885372 12.68496298 5 11 C4.01 10.67 3.02 10.34 2 10 C2 12.31 2 14.62 2 17 C1.34 17 0.68 17 0 17 C0 11.39 0 5.78 0 0 Z " fill="#060606" transform="translate(705,241)"/>
<path d="M0 0 C6.75 0 6.75 0 10 3 C9.125 7.75 9.125 7.75 8 10 C8.76501555 11.79540511 8.76501555 11.79540511 9.9375 13.625 C10.618125 14.73875 11.29875 15.8525 12 17 C9.20171644 16.61402985 8.1794116 16.19863427 6.25 14.0625 C5 12 5 12 5 10 C4.01 10 3.02 10 2 10 C2 12.31 2 14.62 2 17 C1.34 17 0.68 17 0 17 C0 11.39 0 5.78 0 0 Z " fill="#060606" transform="translate(532,241)"/>
<path d="M0 0 C3.75843663 1.87921831 5.14975355 3.02470615 7.75 6.125 C8.36359375 6.84945312 8.9771875 7.57390625 9.609375 8.3203125 C10.29773438 9.15175781 10.29773438 9.15175781 11 10 C11.33 6.7 11.66 3.4 12 0 C12.99 0 13.98 0 15 0 C15 5.94 15 11.88 15 18 C10.20725181 14.00604317 6.86551433 10.69383883 3 6 C2.67 9.63 2.34 13.26 2 17 C1.34 17 0.68 17 0 17 C0 11.39 0 5.78 0 0 Z " fill="#090909" transform="translate(589,241)"/>
<path d="M0 0 C2.90580922 2.26007384 4.59963294 4.02410529 6 7.4375 C6 11.03159506 4.98260745 13.02608883 3 16 C0.07090749 17.82078724 -1.61842399 18.01557453 -5.0625 17.875 C-8.59115184 16.82391222 -9.95131497 16.07302755 -12 13 C-12.70910553 9.11983826 -12.56618837 6.05149269 -10.6875 2.5625 C-7.52595563 -0.3648559 -4.11957137 -0.49434856 0 0 Z M-7.75 4.125 C-10.33940503 6.81009764 -10.33940503 6.81009764 -9.9375 10.1875 C-9.20031442 13.09782797 -9.20031442 13.09782797 -7 15 C-3.54213985 15.50007794 -3.54213985 15.50007794 0 15 C2.37466282 12.93174529 2.88685647 11.56571765 3.5 8.5 C3.19356726 5.76598585 3.19356726 5.76598585 0.6875 3.6875 C-3.11022848 1.30287979 -4.1898669 1.37398806 -7.75 4.125 Z " fill="#111111" transform="translate(200,241)"/>
<path d="M0 0 C3.74785043 2.08213913 4.79482295 3.2947039 6 7.4375 C6 11.4184894 5.5177436 12.96134393 3 16 C0.34500276 18.08606926 -1.06750504 17.99879455 -4.5 17.9375 C-8 17 -8 17 -10.4375 14.875 C-12.41259601 11.24082335 -12.59363772 9.08125936 -12 5 C-8.47403586 0.53377875 -5.6371593 -0.55266268 0 0 Z M-7.875 4.0625 C-10.32328188 6.82637412 -10.32328188 6.82637412 -9.9375 10.1875 C-9.20031442 13.09782797 -9.20031442 13.09782797 -7 15 C-2.33771115 15.4640446 -2.33771115 15.4640446 1.9375 13.875 C3.50422245 11.11019567 3.38976435 9.11811483 3 6 C1.46618752 3.65891779 0.20076108 3.08453098 -2.375 2 C-5.23423034 1.7449778 -5.23423034 1.7449778 -7.875 4.0625 Z " fill="#0B0B0B" transform="translate(683,241)"/>
<path d="M0 0 C0.99 0 1.98 0 3 0 C3 2.64 3 5.28 3 8 C5.64 8 8.28 8 11 8 C11 5.36 11 2.72 11 0 C11.99 0 12.98 0 14 0 C14 5.61 14 11.22 14 17 C13.01 17 12.02 17 11 17 C11 14.69 11 12.38 11 10 C8.36 10 5.72 10 3 10 C3 12.31 3 14.62 3 17 C2.01 17 1.02 17 0 17 C0 11.39 0 5.78 0 0 Z " fill="#0B0B0B" transform="translate(299,241)"/>
<path d="M0 0 C3.96 0 7.92 0 12 0 C10.20262282 4.58331182 8.54234043 8.45765957 5 12 C3.68 12 2.36 12 1 12 C0.63597631 10.56496445 0.28413409 9.12683494 -0.0625 7.6875 C-0.25972656 6.88699219 -0.45695313 6.08648437 -0.66015625 5.26171875 C-1 3 -1 3 0 0 Z " fill="#030303" transform="translate(823,103)"/>
<path d="M0 0 C0.66 0 1.32 0 2 0 C3.00419637 2.4566947 4.00350501 4.91518353 5 7.375 C5.28617187 8.07367188 5.57234375 8.77234375 5.8671875 9.4921875 C8 14.7734375 8 14.7734375 8 17 C7.01 16.67 6.02 16.34 5 16 C4.67 15.34 4.34 14.68 4 14 C1.67843403 13.59270772 -0.6568787 13.25561323 -3 13 C-3.33 14.32 -3.66 15.64 -4 17 C-4.66 17 -5.32 17 -6 17 C-5.34496718 12.94180817 -4.05440879 9.46028718 -2.4375 5.6875 C-1.75494141 4.08455078 -1.75494141 4.08455078 -1.05859375 2.44921875 C-0.53458984 1.23685547 -0.53458984 1.23685547 0 0 Z " fill="#080808" transform="translate(361,241)"/>
<path d="M0 0 C0.66 0 1.32 0 2 0 C2 2.64 2 5.28 2 8 C4.97 8 7.94 8 11 8 C11 5.36 11 2.72 11 0 C11.99 0 12.98 0 14 0 C14 5.61 14 11.22 14 17 C13.01 17 12.02 17 11 17 C11 14.69 11 12.38 11 10 C8.03 10 5.06 10 2 10 C2 12.31 2 14.62 2 17 C1.34 17 0.68 17 0 17 C0 11.39 0 5.78 0 0 Z " fill="#090909" transform="translate(436,241)"/>
<path d="M0 0 C2.79822679 3.31520125 4.18818992 6.69781061 5.6875 10.75 C6.12449219 11.92046875 6.56148437 13.0909375 7.01171875 14.296875 C7.33785156 15.18890625 7.66398438 16.0809375 8 17 C7.01 17 6.02 17 5 17 C4.67 15.68 4.34 14.36 4 13 C1.69 13.33 -0.62 13.66 -3 14 C-3.33 14.99 -3.66 15.98 -4 17 C-4.99 17 -5.98 17 -7 17 C-5.1668733 11.00067626 -2.92678249 5.55079437 0 0 Z " fill="#2B2B2B" transform="translate(565,241)"/>
<path d="M0 0 C0.66 0 1.32 0 2 0 C2.06058594 0.84304687 2.12117187 1.68609375 2.18359375 2.5546875 C2.26738281 3.65039062 2.35117188 4.74609375 2.4375 5.875 C2.51871094 6.96554688 2.59992188 8.05609375 2.68359375 9.1796875 C2.83001703 11.94728971 2.83001703 11.94728971 4 14 C6.97 14.495 6.97 14.495 10 15 C10.33 10.05 10.66 5.1 11 0 C11.99 0 12.98 0 14 0 C14.08126087 2.08268593 14.13930839 4.16628658 14.1875 6.25 C14.22230469 7.41015625 14.25710937 8.5703125 14.29296875 9.765625 C13.97651328 13.25929337 13.48222506 14.57577085 11 17 C7.79634681 17.95427967 5.86193124 18.30284071 2.6875 17.1875 C1 16 1 16 0 14 C-0.07116382 11.62597499 -0.08409085 9.24999323 -0.0625 6.875 C-0.05347656 5.59367188 -0.04445312 4.31234375 -0.03515625 2.9921875 C-0.02355469 2.00476563 -0.01195312 1.01734375 0 0 Z " fill="#111111" transform="translate(222,241)"/>
<path d="M0 0 C3.375 -0.125 3.375 -0.125 7 0 C9 2 9 2 9.3125 5.4375 C9 9 9 9 7.875 10.9375 C6 12 6 12 0 12 C0 8.04 0 4.08 0 0 Z " fill="#FAFAFA" transform="translate(795,244)"/>
<path d="M0 0 C3.3 0 6.6 0 10 0 C10 0.99 10 1.98 10 3 C7.69 3 5.38 3 3 3 C3 4.65 3 6.3 3 8 C4.98 8 6.96 8 9 8 C9 8.66 9 9.32 9 10 C7.02 10 5.04 10 3 10 C3 11.65 3 13.3 3 15 C5.64 15 8.28 15 11 15 C11 15.66 11 16.32 11 17 C7.37 17 3.74 17 0 17 C0 11.39 0 5.78 0 0 Z " fill="#171717" transform="translate(767,241)"/>
<path d="M0 0 C4.62 0 9.24 0 14 0 C14 0.99 14 1.98 14 3 C12.02 3 10.04 3 8 3 C8 7.62 8 12.24 8 17 C7.01 17 6.02 17 5 17 C5 12.38 5 7.76 5 3 C3.35 3 1.7 3 0 3 C0 2.01 0 1.02 0 0 Z " fill="#1F1F1F" transform="translate(407,241)"/>
<path d="M0 0 C2.97 0 5.94 0 9 0 C9 0.99 9 1.98 9 3 C6.69 3 4.38 3 2 3 C2 4.65 2 6.3 2 8 C3.98 8 5.96 8 8 8 C8 8.66 8 9.32 8 10 C6.02 10 4.04 10 2 10 C2 11.65 2 13.3 2 15 C4.64 15 7.28 15 10 15 C10 15.66 10 16.32 10 17 C6.7 17 3.4 17 0 17 C0 11.39 0 5.78 0 0 Z " fill="#090909" transform="translate(330,241)"/>
<path d="M0 0 C4.29 0 8.58 0 13 0 C13 0.99 13 1.98 13 3 C11.35 3 9.7 3 8 3 C8 7.62 8 12.24 8 17 C7.01 17 6.02 17 5 17 C5 12.38 5 7.76 5 3 C3.35 3 1.7 3 0 3 C0 2.01 0 1.02 0 0 Z " fill="#0F0F0F" transform="translate(503,241)"/>
<path d="M0 0 C0.763125 0.20625 1.52625 0.4125 2.3125 0.625 C2.3125 1.285 2.3125 1.945 2.3125 2.625 C0.3325 2.625 -1.6475 2.625 -3.6875 2.625 C-3.3575 3.615 -3.0275 4.605 -2.6875 5.625 C-1.6975 6.07875 -0.7075 6.5325 0.3125 7 C3.3125 8.625 3.3125 8.625 4.3125 11.125 C4.3125 13.625 4.3125 13.625 2.3125 16.625 C0.3671875 16.91796875 0.3671875 16.91796875 -1.8125 16.8125 C-3.09125 16.750625 -4.37 16.68875 -5.6875 16.625 C-6.0175 15.635 -6.3475 14.645 -6.6875 13.625 C-4.3775 13.625 -2.0675 13.625 0.3125 13.625 C0.3125 12.635 0.3125 11.645 0.3125 10.625 C-0.6775 10.00625 -1.6675 9.3875 -2.6875 8.75 C-5.6875 6.625 -5.6875 6.625 -6.25 4 C-5.37409596 0.30173852 -3.66504458 -0.51140157 0 0 Z " fill="#0A0A0A" transform="translate(626.6875,241.375)"/>
<path d="M0 0 C3.36591866 1.44253657 5.51047079 3.33264727 8 6 C9.32 4.02 10.64 2.04 12 0 C12.99 0.33 13.98 0.66 15 1 C14.195625 1.969375 13.39125 2.93875 12.5625 3.9375 C9.54273168 8.10034446 9.12583172 11.95529215 9 17 C8.01 17 7.02 17 6 17 C5.85304687 16.00419922 5.85304687 16.00419922 5.703125 14.98828125 C4.78209071 9.54941494 3.87379587 6.13204893 0 2 C0 1.34 0 0.68 0 0 Z " fill="#0F0F0F" transform="translate(159,241)"/>
<path d="M0 0 C2.97 0 5.94 0 9 0 C9 0.99 9 1.98 9 3 C6.69 3 4.38 3 2 3 C2 4.65 2 6.3 2 8 C3.98 8 5.96 8 8 8 C8 8.66 8 9.32 8 10 C6.02 10 4.04 10 2 10 C2 12.31 2 14.62 2 17 C1.34 17 0.68 17 0 17 C0 11.39 0 5.78 0 0 Z " fill="#0B0B0B" transform="translate(647,241)"/>
<path d="M0 0 C0.99 0 1.98 0 3 0 C3 4.95 3 9.9 3 15 C5.31 15 7.62 15 10 15 C10 15.66 10 16.32 10 17 C6.7 17 3.4 17 0 17 C0 11.39 0 5.78 0 0 Z " fill="#000000" transform="translate(385,241)"/>
<path d="M0 0 C-0.309375 0.53625 -0.61875 1.0725 -0.9375 1.625 C-2.20565845 4.45970711 -2.73675656 6.90688955 -3 10 C-1.29107501 13.31460705 -1.29107501 13.31460705 2.125 13.6875 C3.07375 13.790625 4.0225 13.89375 5 14 C4.67 14.99 4.34 15.98 4 17 C0.67260127 16.69750921 -1.5627594 16.28765829 -4.375 14.4375 C-6.68142007 10.97786989 -6.69630542 8.04520291 -6 4 C-3.9 0 -3.9 0 0 0 Z " fill="#0B0B0B" transform="translate(194,242)"/>
<path d="M0 0 C0.66 0 1.32 0 2 0 C2.06058594 0.84304687 2.12117187 1.68609375 2.18359375 2.5546875 C2.26738281 3.65039062 2.35117188 4.74609375 2.4375 5.875 C2.51871094 6.96554688 2.59992188 8.05609375 2.68359375 9.1796875 C2.83001703 11.94728971 2.83001703 11.94728971 4 14 C6.01669827 15.13350534 6.01669827 15.13350534 8 16 C8 16.66 8 17.32 8 18 C5.125 17.6875 5.125 17.6875 2 17 C-0.49118953 13.2632157 -0.2065226 11.25548181 -0.125 6.8125 C-0.10695312 5.54019531 -0.08890625 4.26789063 -0.0703125 2.95703125 C-0.04710937 1.98121094 -0.02390625 1.00539062 0 0 Z " fill="#080808" transform="translate(222,241)"/>
<path d="M0 0 C0.66 0 1.32 0 2 0 C2.33 1.65 2.66 3.3 3 5 C1.824375 5.37125 1.824375 5.37125 0.625 5.75 C-2.32317108 7.15389099 -2.9024777 8.00675737 -4 11 C-4.66 11 -5.32 11 -6 11 C-5.47731534 8.23723823 -4.89130413 5.6739124 -4 3 C-1.9375 2.3125 -1.9375 2.3125 0 2 C0 1.34 0 0.68 0 0 Z " fill="#696969" transform="translate(361,247)"/>
<path d="M0 0 C0.66 0.33 1.32 0.66 2 1 C3.00496852 4.01490557 3.10335303 6.04181692 3.0625 9.1875 C3.05347656 10.08855469 3.04445313 10.98960937 3.03515625 11.91796875 C3.02355469 12.60503906 3.01195312 13.29210937 3 14 C2.67 14 2.34 14 2 14 C2 11.36 2 8.72 2 6 C0.02 6.66 -1.96 7.32 -4 8 C-4 6.68 -4 5.36 -4 4 C-3.34 4 -2.68 4 -2 4 C-2 3.34 -2 2.68 -2 2 C-1.34 2 -0.68 2 0 2 C0 1.34 0 0.68 0 0 Z " fill="#DBE927" transform="translate(983,126)"/>
<path d="M0 0 C0 0.33 0 0.66 0 1 C-1.60875 1.2165625 -1.60875 1.2165625 -3.25 1.4375 C-5.91662949 1.83749442 -8.41399729 2.27591924 -11 3 C-11 3.66 -11 4.32 -11 5 C-13.31 5 -15.62 5 -18 5 C-12.85610442 -0.90595418 -7.32213202 -0.14357122 0 0 Z " fill="#D5E541" transform="translate(971,117)"/>
<path d="M0 0 C0.33 0 0.66 0 1 0 C1.98248524 4.0527516 2.08159574 7.83861737 2 12 C1.34 12 0.68 12 0 12 C-1.12256131 9.75487738 -1.13413762 8.48543351 -1.125 6 C-1.12886719 4.948125 -1.12886719 4.948125 -1.1328125 3.875 C-1 2 -1 2 0 0 Z " fill="#0B0B0B" transform="translate(749,246)"/>
<path d="M0 0 C1.65 0 3.3 0 5 0 C4.67 1.65 4.34 3.3 4 5 C2.68 5 1.36 5 0 5 C0 3.35 0 1.7 0 0 Z " fill="#E7E7E7" transform="translate(707,244)"/>
<path d="M0 0 C1.65 0 3.3 0 5 0 C4.67 1.65 4.34 3.3 4 5 C2.68 5 1.36 5 0 5 C0 3.35 0 1.7 0 0 Z " fill="#F6F6F6" transform="translate(534,244)"/>
<path d="M0 0 C2.475 0.495 2.475 0.495 5 1 C5 1.99 5 2.98 5 4 C3.35 4.33 1.7 4.66 0 5 C0 3.35 0 1.7 0 0 Z " fill="#FAFAFA" transform="translate(255,244)"/>
<path d="M0 0 C0.66 0.33 1.32 0.66 2 1 C2.33 1.99 2.66 2.98 3 4 C0.69 4 -1.62 4 -4 4 C-2.68 2.68 -1.36 1.36 0 0 Z " fill="#DDED30" transform="translate(957,118)"/>
</svg>
